<svg width="37" height="37" viewBox="0 0 37 37" fill="none" xmlns="http://www.w3.org/2000/svg">
<g clip-path="url(#clip0_297_22451)">
<path d="M16.7288 0.0794926C13.8093 0.498632 11.3378 1.72715 9.28542 3.80117C7.41374 5.68008 6.15632 8.0793 5.66492 10.6736C5.50593 11.5264 5.44812 13.81 5.56374 14.7133C5.88171 17.2715 6.87175 19.49 8.66394 21.6508C9.74792 22.9588 10.3116 24.0355 10.6296 25.4158L10.7813 26.0879H12.4723H14.1634V21.2461C14.1634 16.5271 14.1634 16.3971 14.3151 16.0285C14.5391 15.4576 15.7315 13.0006 16.7866 10.9338C17.6827 9.17773 17.726 9.10547 18.0223 8.96094C18.4053 8.78027 18.5932 8.78027 18.9835 8.96816C19.2942 9.11992 19.3014 9.12715 20.7684 12.0611C21.5778 13.6727 22.3727 15.3059 22.5389 15.6889L22.8352 16.3826V21.2389V26.0879H24.5262H26.2173L26.3401 25.5314C26.4846 24.8738 26.7159 24.2451 27.07 23.5369C27.4024 22.8865 27.6192 22.5686 28.3997 21.5713C29.9534 19.6057 30.7411 18.0303 31.2108 15.9707C31.5866 14.3303 31.6083 11.9889 31.2614 10.3557C30.1196 4.95742 25.7837 0.881639 20.3565 0.108398C19.5544 -0.00722694 17.4442 -0.0216808 16.7288 0.0794926Z" fill="url(#paint0_linear_297_22451)"/>
<path d="M0.953792 5.90404C0.447932 6.14974 0.209456 6.8724 0.469612 7.37826C0.635823 7.70345 1.97274 9.06927 2.37742 9.32943C3.12899 9.81361 4.01785 9.40169 4.10457 8.52728C4.12625 8.29603 4.09735 8.11537 4.01063 7.94193C3.84442 7.61673 2.5075 6.25091 2.10282 5.99076C1.72703 5.75228 1.32957 5.71615 0.953792 5.90404Z" fill="url(#paint1_linear_297_22451)"/>
<path d="M34.8986 5.9908C34.4939 6.25096 33.157 7.61678 32.9908 7.94198C32.7306 8.45506 32.9691 9.17772 33.4894 9.42342C34.1254 9.72694 34.5589 9.51737 35.6718 8.37557C36.5318 7.49393 36.6691 7.26268 36.6257 6.79295C36.539 5.91854 35.6502 5.50663 34.8986 5.9908Z" fill="url(#paint2_linear_297_22451)"/>
<path d="M17.5594 14.0196C16.8296 15.4866 16.6778 15.8407 16.7573 15.8985C17.0102 16.0503 17.8557 16.1948 18.4989 16.1948C19.1421 16.1948 19.9876 16.0503 20.2405 15.8985C20.32 15.8407 20.1682 15.4866 19.4383 14.0196C18.9397 13.0296 18.5206 12.213 18.4989 12.213C18.4772 12.213 18.0581 13.0296 17.5594 14.0196Z" fill="url(#paint3_linear_297_22451)"/>
<path d="M0.476953 13.2174C0.144531 13.4414 0 13.716 0 14.1641C0 14.6121 0.144531 14.8867 0.476953 15.1107C0.664844 15.2336 0.838281 15.248 2.16797 15.248C3.80117 15.248 3.89512 15.2264 4.19863 14.7711C4.38652 14.4893 4.38652 13.8389 4.19863 13.557C3.89512 13.1018 3.80117 13.0801 2.16797 13.0801C0.838281 13.0801 0.664844 13.0945 0.476953 13.2174Z" fill="url(#paint4_linear_297_22451)"/>
<path d="M33.141 13.2174C32.8086 13.4414 32.6641 13.716 32.6641 14.1641C32.6641 14.6121 32.8086 14.8867 33.141 15.1107C33.3289 15.2336 33.5023 15.248 34.832 15.248C36.4652 15.248 36.5592 15.2264 36.8627 14.7711C37.0506 14.4893 37.0506 13.8389 36.8627 13.557C36.5592 13.1018 36.4652 13.0801 34.832 13.0801C33.5023 13.0801 33.3289 13.0945 33.141 13.2174Z" fill="url(#paint5_linear_297_22451)"/>
<path d="M16.332 22.0482V26.0879H18.5H20.668V22.0482V18.0086L20.1115 18.1604C19.6562 18.2832 19.3383 18.3121 18.5 18.3121C17.6617 18.3121 17.3438 18.2832 16.8957 18.1604L16.332 18.0086V22.0482Z" fill="url(#paint6_linear_297_22451)"/>
<path d="M2.37907 18.9986C1.97438 19.2588 0.637465 20.6246 0.471254 20.9498C0.211097 21.4629 0.449574 22.1855 0.969886 22.4312C1.60582 22.7348 2.03942 22.5252 3.15231 21.3834C4.01227 20.5017 4.14957 20.2705 4.10621 19.8008C4.0195 18.9264 3.13063 18.5144 2.37907 18.9986Z" fill="url(#paint7_linear_297_22451)"/>
<path d="M33.4733 18.9119C32.9675 19.1576 32.729 19.8802 32.9891 20.3861C33.1554 20.7113 34.4923 22.0771 34.897 22.3372C35.6485 22.8214 36.5374 22.4095 36.6241 21.5351C36.6458 21.3038 36.6169 21.1232 36.5302 20.9497C36.3639 20.6245 35.027 19.2587 34.6223 18.9986C34.2466 18.7601 33.8491 18.724 33.4733 18.9119Z" fill="url(#paint8_linear_297_22451)"/>
<path d="M10.9121 29.1086C10.9121 29.7734 10.941 30.0625 11.0494 30.3732C11.3891 31.3633 12.1406 32.1148 13.1379 32.4545C13.5137 32.5846 13.8027 32.5918 18.5 32.5918C23.1973 32.5918 23.4863 32.5846 23.8621 32.4545C24.8594 32.1148 25.6109 31.3633 25.9506 30.3732C26.059 30.0625 26.0879 29.7734 26.0879 29.1086V28.2559H18.5H10.9121V29.1086Z" fill="url(#paint9_linear_297_22451)"/>
<path d="M13.4342 35.1861C13.7666 35.8293 14.2797 36.3496 14.9301 36.682L15.4865 36.9639H18.5H21.5135L22.0699 36.682C22.7203 36.3496 23.2334 35.8293 23.5658 35.1861L23.7754 34.7598H18.5H13.2246L13.4342 35.1861Z" fill="url(#paint10_linear_297_22451)"/>
</g>
<defs>
<linearGradient id="paint0_linear_297_22451" x1="38.7507" y1="1.32439" x2="5.01856" y2="26.6683" gradientUnits="userSpaceOnUse">
<stop stop-color="#51C8EF"/>
<stop offset="1" stop-color="#7AF57A"/>
</linearGradient>
<linearGradient id="paint1_linear_297_22451" x1="5.15543" y1="5.97301" x2="0.300477" y2="9.62795" gradientUnits="userSpaceOnUse">
<stop stop-color="#51C8EF"/>
<stop offset="1" stop-color="#7AF57A"/>
</linearGradient>
<linearGradient id="paint2_linear_297_22451" x1="37.6767" y1="5.97453" x2="32.8099" y2="9.62582" gradientUnits="userSpaceOnUse">
<stop stop-color="#51C8EF"/>
<stop offset="1" stop-color="#7AF57A"/>
</linearGradient>
<linearGradient id="paint3_linear_297_22451" x1="21.2402" y1="12.4134" x2="16.2911" y2="15.7107" gradientUnits="userSpaceOnUse">
<stop stop-color="#51C8EF"/>
<stop offset="1" stop-color="#7AF57A"/>
</linearGradient>
<linearGradient id="paint4_linear_297_22451" x1="5.54822" y1="13.1892" x2="2.85847" y2="17.2454" gradientUnits="userSpaceOnUse">
<stop stop-color="#51C8EF"/>
<stop offset="1" stop-color="#7AF57A"/>
</linearGradient>
<linearGradient id="paint5_linear_297_22451" x1="38.2123" y1="13.1892" x2="35.5225" y2="17.2454" gradientUnits="userSpaceOnUse">
<stop stop-color="#51C8EF"/>
<stop offset="1" stop-color="#7AF57A"/>
</linearGradient>
<linearGradient id="paint6_linear_297_22451" x1="21.8756" y1="18.4153" x2="14.3127" y2="21.4731" gradientUnits="userSpaceOnUse">
<stop stop-color="#51C8EF"/>
<stop offset="1" stop-color="#7AF57A"/>
</linearGradient>
<linearGradient id="paint7_linear_297_22451" x1="5.15719" y1="18.9823" x2="0.29034" y2="22.6336" gradientUnits="userSpaceOnUse">
<stop stop-color="#51C8EF"/>
<stop offset="1" stop-color="#7AF57A"/>
</linearGradient>
<linearGradient id="paint8_linear_297_22451" x1="37.675" y1="18.9808" x2="32.82" y2="22.6358" gradientUnits="userSpaceOnUse">
<stop stop-color="#51C8EF"/>
<stop offset="1" stop-color="#7AF57A"/>
</linearGradient>
<linearGradient id="paint9_linear_297_22451" x1="30.3147" y1="28.4741" x2="26.4422" y2="38.6852" gradientUnits="userSpaceOnUse">
<stop stop-color="#51C8EF"/>
<stop offset="1" stop-color="#7AF57A"/>
</linearGradient>
<linearGradient id="paint10_linear_297_22451" x1="26.714" y1="34.8707" x2="25.1853" y2="40.384" gradientUnits="userSpaceOnUse">
<stop stop-color="#51C8EF"/>
<stop offset="1" stop-color="#7AF57A"/>
</linearGradient>
<clipPath id="clip0_297_22451">
<rect width="37" height="37" fill="white"/>
</clipPath>
</defs>
</svg>
