<svg width="38" height="37" viewBox="0 0 38 37" fill="none" xmlns="http://www.w3.org/2000/svg">
<g clip-path="url(#clip0_297_22484)">
<path d="M8.34074 0.116014C4.66242 0.802538 1.73566 3.78711 1.10695 7.48711C0.933515 8.51328 0.998555 10.2549 1.25148 11.216C1.67062 12.8564 2.45109 14.1861 3.71574 15.4291C4.85754 16.5564 6.09328 17.2791 7.58195 17.691L8.12395 17.8428L8.26848 17.6766C8.34797 17.5898 8.65148 17.2285 8.94055 16.8889C10.6821 14.8221 13.421 13.225 16.2683 12.6107L16.8247 12.4879L16.8753 12.1555C16.9693 11.4617 17.215 10.4355 17.4245 9.83574C17.6775 9.12031 18.2484 7.93516 18.5808 7.4582C18.8048 7.13301 18.8048 7.12578 18.7181 6.69219C18.6675 6.44648 18.5013 5.94785 18.3495 5.5793C17.2655 2.9416 15.0253 0.990429 12.2431 0.253321C11.6144 0.0871086 11.347 0.0582027 10.2196 0.0365238C9.27297 0.014843 8.75988 0.0365238 8.34074 0.116014ZM7.61086 3.90996C7.79152 4.06894 8.1673 4.71211 8.92609 6.1502C9.50422 7.25586 9.9884 8.16641 10.0029 8.16641C10.0173 8.16641 10.487 7.27754 11.0507 6.19355C12.2431 3.90273 12.4093 3.68594 13.0019 3.68594C13.4427 3.68594 13.7679 3.81602 14.0136 4.0834C14.1581 4.23516 14.1943 4.35078 14.1943 4.64707C14.1943 5.00117 14.1364 5.1168 13.132 6.77891C12.5394 7.74004 12.0624 8.54941 12.0624 8.56387C12.0624 8.58555 12.3226 8.6 12.6333 8.6C13.0814 8.6 13.2404 8.62891 13.3704 8.73008C13.5872 8.91074 13.5872 9.27207 13.3704 9.48887C13.2331 9.6334 13.132 9.64785 12.2937 9.66953L11.3759 9.69121L11.2458 9.91523C11.1808 10.0309 11.123 10.2404 11.123 10.3777V10.6234H12.1636C13.0669 10.6234 13.2259 10.6379 13.3704 10.7535C13.5872 10.9342 13.5872 11.2955 13.3704 11.5123C13.2259 11.6568 13.132 11.6713 12.1708 11.693L11.123 11.7146V12.618C11.123 13.5863 11.0724 13.767 10.7255 14.0922C10.5593 14.2512 10.4654 14.2729 10.0029 14.2729C9.54035 14.2729 9.44641 14.2512 9.2802 14.0922C8.93332 13.767 8.88273 13.5863 8.88273 12.618V11.7146L7.83488 11.693C6.87375 11.6713 6.7798 11.6568 6.63527 11.5123C6.41848 11.2955 6.41848 10.9342 6.63527 10.7535C6.7798 10.6379 6.93879 10.6234 7.84211 10.6234H8.88273V10.3777C8.88273 10.2404 8.82492 10.0309 8.75988 9.91523L8.6298 9.69121L7.7048 9.66953C6.7798 9.64785 6.77258 9.64785 6.59191 9.43828C6.46184 9.28652 6.4257 9.17812 6.46184 9.04082C6.54133 8.70117 6.74367 8.6 7.37238 8.6C7.68313 8.6 7.94328 8.58555 7.94328 8.56387C7.94328 8.54941 7.48801 7.77617 6.92434 6.8584C6.36789 5.94063 5.87648 5.09512 5.83312 4.97949C5.67414 4.50977 5.91262 4.00391 6.38957 3.78711C6.51242 3.73652 6.77258 3.69316 6.98215 3.68594C7.30012 3.68594 7.40129 3.72207 7.61086 3.90996Z" fill="url(#paint0_linear_297_22484)"/>
<path d="M26.4799 4.59648C22.8233 5.23965 19.9037 8.05801 19.1739 11.6352C19.1088 11.9604 19.0727 12.235 19.0871 12.2566C19.1088 12.2711 19.5207 12.3145 20.0049 12.3578C21.0961 12.4445 22.0862 12.6469 23.1629 12.9865L23.9795 13.2467L24.1096 13.0877C24.2036 12.9721 24.3481 12.907 24.5866 12.8854C24.9118 12.8492 25.0057 12.777 24.8539 12.683C24.7239 12.6035 24.4926 11.7002 24.4926 11.2811C24.4926 9.13477 26.7618 7.74727 29.3922 8.28203C30.8809 8.58555 32.0082 9.61895 32.0082 10.6957C32.0082 11.0064 31.7625 11.4111 31.5024 11.5412C31.2567 11.6641 30.628 11.6568 30.4473 11.5268C30.3606 11.4689 30.1871 11.216 30.0643 10.9703C29.6307 10.1104 29.2911 9.88633 28.4239 9.88633C27.5567 9.88633 26.9135 10.3055 26.7329 10.9992C26.6245 11.375 26.7401 12.0109 26.993 12.5168L27.1664 12.8637H28.0553C29.3416 12.8637 29.6957 13.0082 29.6957 13.5357C29.6957 14.0633 29.3561 14.2367 28.3299 14.2367H27.6145L27.6506 14.5113C27.6723 14.6631 27.6506 14.9088 27.6073 15.0678L27.535 15.3496L28.236 16.0145C28.8647 16.6143 28.9803 16.6937 29.3344 16.7732C29.6018 16.8311 29.9414 16.8383 30.3823 16.8021C31.4229 16.7082 31.5457 16.7154 31.7553 16.9105C32.1889 17.3152 32.1528 18.009 31.683 18.4209C31.4518 18.6232 31.0399 18.7895 30.7653 18.7895C30.5485 18.7895 30.5629 18.8979 30.9026 19.5555C31.0905 19.9096 31.3723 20.5311 31.5385 20.9357L31.8348 21.6729L32.3623 21.3838C33.4897 20.7695 34.776 19.5988 35.4987 18.5148C36.2141 17.4453 36.7416 16.0795 36.9223 14.8221C37.0524 13.9621 36.9801 12.1988 36.785 11.4184C36.467 10.1537 35.9323 9.02637 35.1952 8.05801C33.7715 6.18633 31.7409 4.95781 29.45 4.58926C28.6407 4.45918 27.2459 4.45918 26.4799 4.59648Z" fill="url(#paint1_linear_297_22484)"/>
<path d="M18.3496 14.4967C16.702 14.6196 15.3 14.9953 13.9342 15.6891C10.133 17.5969 7.72656 21.4993 7.72656 25.7629C7.72656 28.7547 8.91172 31.602 11.0508 33.741C12.7418 35.4321 14.9242 36.5305 17.3018 36.8991C18.6025 37.0942 20.532 37.0002 21.8184 36.6823C23.1191 36.3498 24.8102 35.5188 25.9158 34.666C28.2139 32.9028 29.782 30.1567 30.1723 27.2516C30.5986 24.0285 29.6447 20.8344 27.4984 18.3485C26.0893 16.708 23.9719 15.3928 21.8762 14.8436C20.9078 14.5979 19.2385 14.4317 18.3496 14.4967ZM19.3396 17.5174C19.5275 17.6836 19.542 17.7342 19.5637 18.3485L19.5926 19.0061H19.8311C20.5031 19.0061 21.9557 19.4686 22.6783 19.9022C23.5311 20.4225 24.0514 21.203 23.9646 21.8389C23.8996 22.3448 23.5021 22.7494 22.9963 22.8145C22.635 22.8651 22.3459 22.7205 21.9846 22.3086C21.2186 21.4414 20.7705 21.0584 20.3803 20.9356C20.1707 20.8705 19.9033 20.8127 19.7877 20.8127H19.5781V22.6121V24.4188L19.9973 24.4983C20.6982 24.65 21.8979 25.0692 22.3893 25.3438C22.9529 25.6545 23.5455 26.2254 23.7695 26.6662C24.4561 28.0176 24.2754 29.8098 23.3359 30.8793C22.6639 31.6381 21.5076 32.1368 19.925 32.3391L19.5781 32.3825V32.9606C19.5781 33.6182 19.448 34.0084 19.2023 34.1024C18.7543 34.2686 18.4941 33.8494 18.4941 32.9823V32.3897L18.01 32.3391C16.702 32.209 15.5023 31.7032 14.7869 30.9805C13.8258 30.0194 13.5367 28.7403 14.151 28.1549C14.3895 27.9237 14.7797 27.8153 15.1627 27.8731C15.748 27.967 15.9287 28.1621 16.2973 29.1233C16.6441 30.0266 17.1572 30.4024 18.1906 30.518L18.4941 30.5541V28.5741V26.6012L18.1906 26.5217C16.4996 26.0953 15.5746 25.6401 14.9025 24.9102C13.7318 23.6383 13.8402 21.5932 15.1555 20.2707C15.8275 19.5987 17.2656 19.0061 18.2412 19.0061H18.4941V18.5002C18.4941 17.951 18.617 17.5463 18.8338 17.4235C19.0289 17.3078 19.1156 17.3295 19.3396 17.5174Z" fill="url(#paint2_linear_297_22484)"/>
<path d="M17.7353 20.9137C17.1716 21.0943 16.7091 21.434 16.4923 21.8459C16.3406 22.1422 16.355 22.7854 16.5284 23.1105C16.7669 23.573 17.4968 24.0139 18.2628 24.1584L18.4941 24.209V22.5107V20.8125L18.2628 20.8197C18.1327 20.8197 17.8943 20.8631 17.7353 20.9137Z" fill="url(#paint3_linear_297_22484)"/>
<path d="M19.5781 28.6894V30.561L19.8166 30.5249C21.1969 30.2864 21.8906 29.6794 21.8906 28.6894C21.8906 27.9739 21.6088 27.5692 20.8428 27.1862C20.5609 27.0489 19.8166 26.8104 19.6576 26.8104C19.5998 26.8104 19.5781 27.3741 19.5781 28.6894Z" fill="url(#paint4_linear_297_22484)"/>
</g>
<defs>
<linearGradient id="paint0_linear_297_22484" x1="23.719" y1="0.925294" x2="0.675712" y2="18.235" gradientUnits="userSpaceOnUse">
<stop stop-color="#51C8EF"/>
<stop offset="1" stop-color="#7AF57A"/>
</linearGradient>
<linearGradient id="paint1_linear_297_22484" x1="41.9746" y1="5.35736" x2="19.4965" y2="23.0054" gradientUnits="userSpaceOnUse">
<stop stop-color="#51C8EF"/>
<stop offset="1" stop-color="#7AF57A"/>
</linearGradient>
<linearGradient id="paint2_linear_297_22484" x1="36.5511" y1="15.616" x2="7.38994" y2="37.6121" gradientUnits="userSpaceOnUse">
<stop stop-color="#51C8EF"/>
<stop offset="1" stop-color="#7AF57A"/>
</linearGradient>
<linearGradient id="paint3_linear_297_22484" x1="19.0807" y1="20.9835" x2="15.572" y2="22.6228" gradientUnits="userSpaceOnUse">
<stop stop-color="#51C8EF"/>
<stop offset="1" stop-color="#7AF57A"/>
</linearGradient>
<linearGradient id="paint4_linear_297_22484" x1="22.5347" y1="26.9992" x2="18.6747" y2="28.7923" gradientUnits="userSpaceOnUse">
<stop stop-color="#51C8EF"/>
<stop offset="1" stop-color="#7AF57A"/>
</linearGradient>
<clipPath id="clip0_297_22484">
<rect width="37" height="37" fill="white" transform="translate(0.5)"/>
</clipPath>
</defs>
</svg>
