<svg width="38" height="37" viewBox="0 0 38 37" fill="none" xmlns="http://www.w3.org/2000/svg">
<path d="M18.7832 0.411898C18.4363 0.549203 18.4219 0.599789 18.4219 2.00174C18.4219 2.73162 18.4508 3.39647 18.4941 3.46873C18.6098 3.68553 18.9711 3.77225 19.2529 3.65662C19.5998 3.50487 19.6721 3.1869 19.6432 1.8283C19.6143 0.845492 19.5998 0.708188 19.4697 0.585336C19.318 0.426352 18.9639 0.339633 18.7832 0.411898Z" fill="url(#paint0_linear_297_22467)"/>
<path d="M12.8507 3.60605C12.6122 3.85175 12.5833 4.06855 12.7712 4.35039C12.9301 4.59609 14.9247 6.38105 15.1198 6.45331C15.5028 6.59785 15.893 6.29433 15.893 5.86074C15.893 5.54999 15.7991 5.44882 14.3755 4.17695C13.3926 3.30253 13.2264 3.23749 12.8507 3.60605Z" fill="url(#paint1_linear_297_22467)"/>
<path d="M24.4417 3.49036C24.102 3.67825 22.122 5.55716 22.0786 5.73059C21.9702 6.17141 22.3677 6.5761 22.794 6.46048C23.047 6.38821 24.9981 4.70442 25.2294 4.35032C25.4173 4.06848 25.3884 3.85169 25.1499 3.60598C24.9259 3.38196 24.7018 3.34583 24.4417 3.49036Z" fill="url(#paint2_linear_297_22467)"/>
<path d="M6.00672 5.29707C5.96336 5.34766 5.66707 6.08477 5.34187 6.9375C5.01668 7.79023 4.73484 8.51289 4.70593 8.5418C4.67703 8.5707 3.91824 8.62852 3.02937 8.67188C1.03484 8.77305 1.0782 8.76582 1.0782 9.01875C1.0782 9.19941 1.25164 9.36562 2.41511 10.2906C3.15945 10.8832 3.75203 11.4107 3.75203 11.4758C3.75203 11.5408 3.55691 12.3213 3.31121 13.2102C2.85593 14.8939 2.84871 15.0312 3.18113 15.0312C3.2534 15.0312 3.9616 14.6049 4.75652 14.0918L6.19461 13.1451L7.64715 14.0918C9.16472 15.0891 9.4032 15.183 9.44656 14.8072C9.46101 14.7061 9.27312 13.9184 9.03465 13.0439C8.79617 12.1768 8.61551 11.4396 8.63719 11.4035C8.65886 11.3674 9.08523 11.0133 9.59109 10.6086C11.3688 9.18496 11.5061 9.04043 11.2532 8.83809C11.2026 8.79473 10.3932 8.72246 9.46101 8.6791C8.29754 8.62129 7.74109 8.5707 7.68328 8.50566C7.63992 8.4623 7.34363 7.73965 7.03289 6.90859C6.72215 6.07754 6.42586 5.35488 6.36804 5.3043C6.24519 5.18145 6.10789 5.17422 6.00672 5.29707Z" fill="url(#paint3_linear_297_22467)"/>
<path d="M18.8041 5.28984C18.7607 5.34043 18.4789 6.06309 18.1609 6.88691C17.8502 7.71797 17.5611 8.44062 17.525 8.49844C17.4599 8.57793 17.0625 8.62129 15.7472 8.6791C14.815 8.72969 14.0056 8.79473 13.9623 8.83809C13.7093 9.02598 13.8683 9.21387 15.1763 10.2617C15.8918 10.8326 16.506 11.3385 16.5349 11.3818C16.5711 11.418 16.3976 12.1912 16.1447 13.1162C15.675 14.8361 15.6605 15.0312 15.9713 15.0312C16.0508 15.0312 16.7662 14.6049 17.5611 14.0846L19.0064 13.1451L20.4445 14.0846C21.2322 14.6049 21.9476 15.0312 22.0271 15.0312C22.1066 15.0312 22.2006 14.9807 22.2367 14.9084C22.3017 14.7928 22.2439 14.5254 21.608 12.1912L21.3912 11.418L22.7425 10.3268C24.0867 9.24277 24.2746 9.01875 24.0433 8.83809C23.9927 8.79473 23.1834 8.72969 22.2511 8.6791C21.3189 8.63574 20.5312 8.5707 20.5023 8.5418C20.4662 8.50566 20.1771 7.78301 19.8519 6.93027C19.534 6.07754 19.2377 5.34043 19.1943 5.28984C19.1582 5.24648 19.0715 5.20312 18.9992 5.20312C18.9269 5.20312 18.8402 5.24648 18.8041 5.28984Z" fill="url(#paint4_linear_297_22467)"/>
<path d="M31.5452 5.3624C31.4874 5.45635 31.1911 6.19346 30.8876 7.01006C30.5768 7.82666 30.3094 8.51319 30.2805 8.54209C30.2516 8.571 29.5001 8.62881 28.6112 8.67217C27.7151 8.71553 26.913 8.76611 26.8335 8.78057C26.66 8.8167 26.5733 8.97568 26.6311 9.13467C26.6528 9.19248 27.2743 9.72002 28.0042 10.3054C28.734 10.898 29.3339 11.411 29.3339 11.4616C29.3339 11.5122 29.1387 12.271 28.9003 13.1526C28.6618 14.0343 28.4811 14.822 28.5028 14.8942C28.5895 15.1616 28.893 15.0315 30.2878 14.1138C31.0538 13.6151 31.7186 13.2032 31.7692 13.2032C31.8126 13.2032 32.4846 13.6151 33.2579 14.121C34.7176 15.0677 34.9778 15.1761 35.0284 14.8364C35.0428 14.7497 34.8549 13.962 34.6165 13.0876C34.378 12.2132 34.1973 11.4544 34.219 11.4038C34.2407 11.3532 34.8477 10.8401 35.5704 10.262C36.8639 9.22861 37.059 9.01182 36.835 8.83838C36.7844 8.79502 35.9751 8.72275 35.0428 8.6794C33.8794 8.62158 33.3229 8.571 33.2651 8.50596C33.2145 8.4626 32.911 7.71826 32.593 6.86553C32.2678 6.01279 31.9643 5.29014 31.9137 5.26123C31.762 5.16729 31.6536 5.19619 31.5452 5.3624Z" fill="url(#paint5_linear_297_22467)"/>
<path d="M18.4581 16.8377C16.8682 17.0473 15.6252 18.0951 15.0977 19.6561C14.8737 20.3209 14.8737 21.4482 15.0977 22.1131C15.6903 23.8764 17.1717 24.9531 19 24.9531C20.1563 24.9531 21.0958 24.5701 21.8834 23.7824C22.6928 22.973 23.0614 22.0625 23.0614 20.8846C23.0614 19.685 22.6928 18.7816 21.8473 17.9506C20.9729 17.0979 19.701 16.6787 18.4581 16.8377Z" fill="url(#paint6_linear_297_22467)"/>
<path d="M6.20898 19.8082C5.34902 19.9744 4.49629 20.6609 4.0916 21.5136C3.8748 21.9761 3.86035 22.0556 3.86035 22.8C3.86035 23.5443 3.8748 23.6238 4.0916 24.0791C4.58301 25.1197 5.52246 25.7773 6.61367 25.8496C7.27852 25.8929 7.93613 25.7556 8.44199 25.4593C9.47539 24.8523 10.1041 23.5299 9.90898 22.3591C9.6127 20.5886 7.97949 19.4613 6.20898 19.8082Z" fill="url(#paint7_linear_297_22467)"/>
<path d="M30.3537 19.8439C28.8361 20.2486 27.8316 21.7734 28.0918 23.2693C28.3881 24.9242 29.7178 25.9648 31.3871 25.8492C32.4783 25.7769 33.4178 25.1193 33.9092 24.0787C34.126 23.6234 34.1404 23.5439 34.1404 22.7996C34.1404 22.0552 34.126 21.9757 33.9092 21.5132C33.2732 20.1691 31.7701 19.4609 30.3537 19.8439Z" fill="url(#paint8_linear_297_22467)"/>
<path d="M17.6931 25.7193C16.4935 25.9434 15.041 26.5648 14.1521 27.2369C12.8441 28.2342 11.8035 29.7012 11.3193 31.2549C11.0447 32.1437 10.958 32.8158 10.9941 33.9721C11.0158 34.8898 11.0375 35.0561 11.1892 35.3668C11.4132 35.8221 11.789 36.1979 12.2443 36.4219L12.6056 36.6025H19.0011H25.3966L25.7507 36.4291C26.206 36.2051 26.589 35.8221 26.813 35.3668C26.9648 35.0561 26.9865 34.8898 27.0082 33.9721C27.0515 32.3605 26.8275 31.3127 26.1482 29.9902C25.7074 29.1375 25.2377 28.5016 24.5439 27.8439C23.5755 26.9262 22.4121 26.2686 21.0968 25.9C20.5115 25.741 20.2369 25.7121 19.2179 25.6904C18.5603 25.676 17.8738 25.6904 17.6931 25.7193Z" fill="url(#paint9_linear_297_22467)"/>
<path d="M6.16662 26.666C4.38889 26.8612 2.71955 27.9162 1.77287 29.4338C1.03576 30.6117 0.884004 31.5656 1.33928 32.1365C1.7801 32.6858 1.57775 32.6641 5.98596 32.6496L9.92443 32.6279L10.0184 32.057C10.1557 31.2477 10.4881 30.2938 10.9578 29.3904L11.3625 28.61L11.1168 28.357C9.95334 27.1285 7.98772 26.4637 6.16662 26.666Z" fill="url(#paint10_linear_297_22467)"/>
<path d="M30.5627 26.6371C29.1174 26.8033 27.7299 27.461 26.8482 28.3932L26.6387 28.6172L27.0434 29.3904C27.5131 30.2938 27.8455 31.2477 27.9828 32.057L28.0768 32.6279L32.0152 32.6496C36.4234 32.6641 36.2211 32.6858 36.6619 32.1365C37.1172 31.5656 36.9654 30.6117 36.2283 29.4338C35.3973 28.1041 33.8652 27.0346 32.3693 26.7528C31.8924 26.6588 30.9168 26.601 30.5627 26.6371Z" fill="url(#paint11_linear_297_22467)"/>
<defs>
<linearGradient id="paint0_linear_297_22467" x1="19.9907" y1="0.553345" x2="17.6795" y2="1.19652" gradientUnits="userSpaceOnUse">
<stop stop-color="#51C8EF"/>
<stop offset="1" stop-color="#7AF57A"/>
</linearGradient>
<linearGradient id="paint1_linear_297_22467" x1="16.7967" y1="3.54987" x2="12.741" y2="6.75238" gradientUnits="userSpaceOnUse">
<stop stop-color="#51C8EF"/>
<stop offset="1" stop-color="#7AF57A"/>
</linearGradient>
<linearGradient id="paint2_linear_297_22467" x1="26.2689" y1="3.55895" x2="22.2199" y2="6.82273" gradientUnits="userSpaceOnUse">
<stop stop-color="#51C8EF"/>
<stop offset="1" stop-color="#7AF57A"/>
</linearGradient>
<linearGradient id="paint3_linear_297_22467" x1="14.2118" y1="5.7029" x2="1.34932" y2="15.8369" gradientUnits="userSpaceOnUse">
<stop stop-color="#51C8EF"/>
<stop offset="1" stop-color="#7AF57A"/>
</linearGradient>
<linearGradient id="paint4_linear_297_22467" x1="26.9867" y1="5.69783" x2="14.1208" y2="15.8227" gradientUnits="userSpaceOnUse">
<stop stop-color="#51C8EF"/>
<stop offset="1" stop-color="#7AF57A"/>
</linearGradient>
<linearGradient id="paint5_linear_297_22467" x1="39.7841" y1="5.70187" x2="26.9271" y2="15.8745" gradientUnits="userSpaceOnUse">
<stop stop-color="#51C8EF"/>
<stop offset="1" stop-color="#7AF57A"/>
</linearGradient>
<linearGradient id="paint6_linear_297_22467" x1="25.3262" y1="17.2147" x2="14.7832" y2="25.1411" gradientUnits="userSpaceOnUse">
<stop stop-color="#51C8EF"/>
<stop offset="1" stop-color="#7AF57A"/>
</linearGradient>
<linearGradient id="paint7_linear_297_22467" x1="11.6389" y1="20.0532" x2="3.73658" y2="25.9795" gradientUnits="userSpaceOnUse">
<stop stop-color="#51C8EF"/>
<stop offset="1" stop-color="#7AF57A"/>
</linearGradient>
<linearGradient id="paint8_linear_297_22467" x1="35.8365" y1="20.0484" x2="27.927" y2="25.9802" gradientUnits="userSpaceOnUse">
<stop stop-color="#51C8EF"/>
<stop offset="1" stop-color="#7AF57A"/>
</linearGradient>
<linearGradient id="paint9_linear_297_22467" x1="31.4772" y1="26.2343" x2="16.8469" y2="42.4146" gradientUnits="userSpaceOnUse">
<stop stop-color="#51C8EF"/>
<stop offset="1" stop-color="#7AF57A"/>
</linearGradient>
<linearGradient id="paint10_linear_297_22467" x1="14.2259" y1="26.9334" x2="6.36107" y2="37.0442" gradientUnits="userSpaceOnUse">
<stop stop-color="#51C8EF"/>
<stop offset="1" stop-color="#7AF57A"/>
</linearGradient>
<linearGradient id="paint11_linear_297_22467" x1="39.7825" y1="26.9297" x2="31.9114" y2="37.0421" gradientUnits="userSpaceOnUse">
<stop stop-color="#51C8EF"/>
<stop offset="1" stop-color="#7AF57A"/>
</linearGradient>
</defs>
</svg>
